<svg width="23" height="23" viewBox="0 0 23 23" fill="none" xmlns="http://www.w3.org/2000/svg">
<path d="M8.31266 10.1095C8.44571 10.0327 8.55618 9.92223 8.63298 9.78917C8.70978 9.65612 8.7502 9.50519 8.75016 9.35156V1.47656C8.74938 1.33706 8.71525 1.19977 8.65063 1.07613C8.58601 0.952497 8.49276 0.846107 8.37866 0.765833C8.26457 0.685559 8.13293 0.63373 7.99474 0.614668C7.85654 0.595605 7.71579 0.609862 7.58422 0.65625C5.03029 1.56014 2.88254 3.34539 1.52705 5.69108C0.171569 8.03676 -0.302745 10.789 0.189379 13.4531C0.214887 13.5909 0.273105 13.7205 0.359135 13.8311C0.445166 13.9417 0.556493 14.03 0.683754 14.0886C0.79844 14.1422 0.923555 14.1699 1.05016 14.1695C1.20374 14.1696 1.35462 14.1292 1.48766 14.0525L8.31266 10.1095ZM7.00016 2.80219V8.84625L1.76329 11.8683C1.75016 11.7031 1.75016 11.5369 1.75016 11.375C1.75171 9.60133 2.24267 7.86249 3.16897 6.34992C4.09527 4.83735 5.42099 3.60972 7.00016 2.80219ZM22.7502 11.375C22.751 13.8722 21.9301 16.3002 20.4141 18.2846C18.8981 20.2689 16.7713 21.6992 14.3617 22.3549C11.9521 23.0105 9.39377 22.855 7.08135 21.9124C4.76892 20.9698 2.83094 19.2924 1.56641 17.1391C1.50746 17.0396 1.46881 16.9294 1.45269 16.815C1.43657 16.7005 1.4433 16.5839 1.47248 16.472C1.50167 16.3602 1.55274 16.2552 1.62274 16.1632C1.69275 16.0712 1.78029 15.9939 1.88032 15.9359L10.5002 10.9189V0.875C10.5002 0.642936 10.5923 0.420376 10.7564 0.256282C10.9205 0.0921872 11.1431 0 11.3752 0C13.3602 0.00101283 15.3104 0.521209 17.0322 1.50894C18.754 2.49668 20.1876 3.9176 21.1905 5.63063C21.2025 5.64813 21.2134 5.66563 21.2244 5.68422C21.2353 5.70281 21.2463 5.72469 21.2561 5.74437C22.2375 7.45846 22.7527 9.39982 22.7502 11.375Z" fill="white"/>
</svg>
